<mxfile host="app.diagrams.net" modified="2022-02-10T11:16:39.775Z" agent="5.0 (X11)" etag="-WKu-Tlh5r6MEnqSth8j" version="16.1.0" type="github">
  <diagram id="eOeLys6SvyDrJIZRAw8x" name="Page-1">
    <mxGraphModel dx="2059" dy="1441" grid="1" gridSize="10" guides="1" tooltips="1" connect="1" arrows="1" fold="1" page="1" pageScale="1" pageWidth="1600" pageHeight="1200" math="0" shadow="0">
      <root>
        <mxCell id="0" />
        <mxCell id="1" parent="0" />
        <mxCell id="ILecgsPwq-bgqkM6CZhe-417" value="Museo" style="whiteSpace=wrap;html=1;align=center;" parent="1" vertex="1">
          <mxGeometry x="230" y="630" width="100" height="40" as="geometry" />
        </mxCell>
        <mxCell id="ILecgsPwq-bgqkM6CZhe-418" value="1;N" style="endArrow=none;html=1;rounded=0;exitX=1;exitY=0.5;exitDx=0;exitDy=0;entryX=0;entryY=0.5;entryDx=0;entryDy=0;" parent="1" source="ILecgsPwq-bgqkM6CZhe-432" target="ILecgsPwq-bgqkM6CZhe-420" edge="1">
          <mxGeometry relative="1" as="geometry">
            <mxPoint x="821" y="-85.66" as="sourcePoint" />
            <mxPoint x="611" y="-95.66" as="targetPoint" />
            <Array as="points" />
          </mxGeometry>
        </mxCell>
        <mxCell id="ILecgsPwq-bgqkM6CZhe-419" value="1;N" style="endArrow=none;html=1;rounded=0;entryX=0;entryY=0.5;entryDx=0;entryDy=0;exitX=1;exitY=0.5;exitDx=0;exitDy=0;" parent="1" source="nI-XyVOAhAh8i_kXX127-1" target="ILecgsPwq-bgqkM6CZhe-421" edge="1">
          <mxGeometry relative="1" as="geometry">
            <mxPoint x="732" y="424" as="sourcePoint" />
            <mxPoint x="882" y="428.84" as="targetPoint" />
          </mxGeometry>
        </mxCell>
        <mxCell id="ILecgsPwq-bgqkM6CZhe-420" value="Dipinto" style="whiteSpace=wrap;html=1;align=center;" parent="1" vertex="1">
          <mxGeometry x="881" y="289.34000000000003" width="100" height="40" as="geometry" />
        </mxCell>
        <mxCell id="ILecgsPwq-bgqkM6CZhe-421" value="Scultura" style="whiteSpace=wrap;html=1;align=center;" parent="1" vertex="1">
          <mxGeometry x="881" y="404.34" width="100" height="40" as="geometry" />
        </mxCell>
        <mxCell id="ILecgsPwq-bgqkM6CZhe-422" value="Altro" style="whiteSpace=wrap;html=1;align=center;" parent="1" vertex="1">
          <mxGeometry x="900" y="947" width="100" height="40" as="geometry" />
        </mxCell>
        <mxCell id="ILecgsPwq-bgqkM6CZhe-423" value="0;N" style="endArrow=none;html=1;rounded=0;entryX=0;entryY=0.5;entryDx=0;entryDy=0;exitX=1;exitY=0.5;exitDx=0;exitDy=0;" parent="1" source="ILecgsPwq-bgqkM6CZhe-425" target="ILecgsPwq-bgqkM6CZhe-417" edge="1">
          <mxGeometry relative="1" as="geometry">
            <mxPoint x="-100" y="460" as="sourcePoint" />
            <mxPoint x="370" y="490" as="targetPoint" />
          </mxGeometry>
        </mxCell>
        <mxCell id="ILecgsPwq-bgqkM6CZhe-424" value="Cliente" style="whiteSpace=wrap;html=1;align=center;" parent="1" vertex="1">
          <mxGeometry x="-152" y="790" width="100" height="40" as="geometry" />
        </mxCell>
        <mxCell id="ILecgsPwq-bgqkM6CZhe-425" value="Effettuare" style="shape=rhombus;perimeter=rhombusPerimeter;whiteSpace=wrap;html=1;align=center;" parent="1" vertex="1">
          <mxGeometry x="-369" y="620" width="120" height="60" as="geometry" />
        </mxCell>
        <mxCell id="ILecgsPwq-bgqkM6CZhe-426" value="" style="endArrow=none;html=1;rounded=0;" parent="1" edge="1">
          <mxGeometry relative="1" as="geometry">
            <mxPoint x="948.5" y="-120.65999999999954" as="sourcePoint" />
            <mxPoint x="948.5" y="289.3400000000005" as="targetPoint" />
          </mxGeometry>
        </mxCell>
        <mxCell id="ILecgsPwq-bgqkM6CZhe-427" value="" style="endArrow=none;html=1;rounded=0;entryX=0;entryY=0.5;entryDx=0;entryDy=0;" parent="1" edge="1">
          <mxGeometry relative="1" as="geometry">
            <mxPoint x="949" y="189.34000000000046" as="sourcePoint" />
            <mxPoint x="973.9999999999836" y="189.34000000000046" as="targetPoint" />
          </mxGeometry>
        </mxCell>
        <mxCell id="ILecgsPwq-bgqkM6CZhe-428" value="" style="endArrow=none;html=1;rounded=0;entryX=0;entryY=0.5;entryDx=0;entryDy=0;" parent="1" edge="1">
          <mxGeometry relative="1" as="geometry">
            <mxPoint x="949" y="19.340000000000458" as="sourcePoint" />
            <mxPoint x="974" y="19.340000000000458" as="targetPoint" />
          </mxGeometry>
        </mxCell>
        <mxCell id="ILecgsPwq-bgqkM6CZhe-429" value="" style="endArrow=none;html=1;rounded=0;entryX=0;entryY=0.5;entryDx=0;entryDy=0;" parent="1" edge="1">
          <mxGeometry relative="1" as="geometry">
            <mxPoint x="949" y="-20.659999999999542" as="sourcePoint" />
            <mxPoint x="974" y="-20.659999999999542" as="targetPoint" />
          </mxGeometry>
        </mxCell>
        <mxCell id="ILecgsPwq-bgqkM6CZhe-430" value="" style="endArrow=none;html=1;rounded=0;entryX=0;entryY=0.5;entryDx=0;entryDy=0;" parent="1" edge="1">
          <mxGeometry relative="1" as="geometry">
            <mxPoint x="949" y="134.34000000000046" as="sourcePoint" />
            <mxPoint x="974" y="134.34000000000046" as="targetPoint" />
          </mxGeometry>
        </mxCell>
        <mxCell id="ILecgsPwq-bgqkM6CZhe-431" value="" style="endArrow=none;html=1;rounded=0;entryX=0;entryY=0.5;entryDx=0;entryDy=0;" parent="1" edge="1">
          <mxGeometry relative="1" as="geometry">
            <mxPoint x="949" y="104.34000000000046" as="sourcePoint" />
            <mxPoint x="975.0000000000009" y="104.34000000000046" as="targetPoint" />
          </mxGeometry>
        </mxCell>
        <mxCell id="ILecgsPwq-bgqkM6CZhe-432" value="&lt;div&gt;Contenere&lt;/div&gt;&lt;div&gt;Dipinto&lt;/div&gt;" style="shape=rhombus;perimeter=rhombusPerimeter;whiteSpace=wrap;html=1;align=center;" parent="1" vertex="1">
          <mxGeometry x="591" y="279.34000000000003" width="120" height="60" as="geometry" />
        </mxCell>
        <mxCell id="ILecgsPwq-bgqkM6CZhe-433" value="Creare" style="shape=rhombus;perimeter=rhombusPerimeter;whiteSpace=wrap;html=1;align=center;" parent="1" vertex="1">
          <mxGeometry x="1720" y="393.3400000000001" width="120" height="60" as="geometry" />
        </mxCell>
        <mxCell id="ILecgsPwq-bgqkM6CZhe-434" value="1,1" style="endArrow=none;html=1;rounded=0;entryX=0;entryY=0.5;entryDx=0;entryDy=0;exitX=1;exitY=0.5;exitDx=0;exitDy=0;" parent="1" source="ILecgsPwq-bgqkM6CZhe-421" target="ILecgsPwq-bgqkM6CZhe-433" edge="1">
          <mxGeometry relative="1" as="geometry">
            <mxPoint x="1510" y="338" as="sourcePoint" />
            <mxPoint x="1640" y="748.4000000000001" as="targetPoint" />
          </mxGeometry>
        </mxCell>
        <mxCell id="ILecgsPwq-bgqkM6CZhe-435" value="Artista" style="whiteSpace=wrap;html=1;align=center;" parent="1" vertex="1">
          <mxGeometry x="2010" y="404.3400000000001" width="100" height="40" as="geometry" />
        </mxCell>
        <mxCell id="ILecgsPwq-bgqkM6CZhe-436" value="1,N" style="endArrow=none;html=1;rounded=0;exitX=1;exitY=0.5;exitDx=0;exitDy=0;entryX=0;entryY=0.5;entryDx=0;entryDy=0;" parent="1" source="ILecgsPwq-bgqkM6CZhe-433" target="ILecgsPwq-bgqkM6CZhe-435" edge="1">
          <mxGeometry relative="1" as="geometry">
            <mxPoint x="2042" y="478.4000000000003" as="sourcePoint" />
            <mxPoint x="2042" y="358.4000000000001" as="targetPoint" />
          </mxGeometry>
        </mxCell>
        <mxCell id="ILecgsPwq-bgqkM6CZhe-437" value="" style="endArrow=none;html=1;rounded=0;entryX=0;entryY=0.5;entryDx=0;entryDy=0;" parent="1" edge="1">
          <mxGeometry relative="1" as="geometry">
            <mxPoint x="949" y="-70.65999999999954" as="sourcePoint" />
            <mxPoint x="976.0000000000136" y="-70.65999999999954" as="targetPoint" />
          </mxGeometry>
        </mxCell>
        <mxCell id="ILecgsPwq-bgqkM6CZhe-438" value="" style="ellipse;whiteSpace=wrap;html=1;align=center;fillColor=#000000;" parent="1" vertex="1">
          <mxGeometry x="2140" y="454.3400000000001" width="20" height="20" as="geometry" />
        </mxCell>
        <mxCell id="ILecgsPwq-bgqkM6CZhe-439" value="" style="endArrow=none;html=1;rounded=0;exitX=1;exitY=0;exitDx=0;exitDy=0;" parent="1" source="ILecgsPwq-bgqkM6CZhe-435" edge="1">
          <mxGeometry width="50" height="50" relative="1" as="geometry">
            <mxPoint x="2115" y="424.3400000000001" as="sourcePoint" />
            <mxPoint x="2400.000000000001" y="404.34000000000015" as="targetPoint" />
          </mxGeometry>
        </mxCell>
        <mxCell id="ILecgsPwq-bgqkM6CZhe-440" value="" style="endArrow=none;html=1;rounded=0;" parent="1" edge="1">
          <mxGeometry width="50" height="50" relative="1" as="geometry">
            <mxPoint x="2150" y="454.34000000000015" as="sourcePoint" />
            <mxPoint x="2150" y="404.34000000000015" as="targetPoint" />
          </mxGeometry>
        </mxCell>
        <mxCell id="ILecgsPwq-bgqkM6CZhe-441" value="&lt;div&gt;ID&lt;/div&gt;" style="text;html=1;strokeColor=none;fillColor=none;align=center;verticalAlign=middle;whiteSpace=wrap;rounded=0;" parent="1" vertex="1">
          <mxGeometry x="2120" y="474.3400000000001" width="60" height="30" as="geometry" />
        </mxCell>
        <mxCell id="ILecgsPwq-bgqkM6CZhe-442" value="" style="ellipse;whiteSpace=wrap;html=1;align=center;" parent="1" vertex="1">
          <mxGeometry x="2210" y="454.3400000000001" width="20" height="20" as="geometry" />
        </mxCell>
        <mxCell id="ILecgsPwq-bgqkM6CZhe-443" value="" style="endArrow=none;html=1;rounded=0;" parent="1" edge="1">
          <mxGeometry width="50" height="50" relative="1" as="geometry">
            <mxPoint x="2220" y="454.34000000000015" as="sourcePoint" />
            <mxPoint x="2220" y="404.34000000000015" as="targetPoint" />
          </mxGeometry>
        </mxCell>
        <mxCell id="ILecgsPwq-bgqkM6CZhe-444" value="&lt;div&gt;Nome&lt;/div&gt;" style="text;html=1;strokeColor=none;fillColor=none;align=center;verticalAlign=middle;whiteSpace=wrap;rounded=0;" parent="1" vertex="1">
          <mxGeometry x="2190" y="474.3400000000001" width="60" height="30" as="geometry" />
        </mxCell>
        <mxCell id="ILecgsPwq-bgqkM6CZhe-445" value="" style="ellipse;whiteSpace=wrap;html=1;align=center;" parent="1" vertex="1">
          <mxGeometry x="2270" y="454.3400000000001" width="20" height="20" as="geometry" />
        </mxCell>
        <mxCell id="ILecgsPwq-bgqkM6CZhe-446" value="" style="endArrow=none;html=1;rounded=0;" parent="1" edge="1">
          <mxGeometry width="50" height="50" relative="1" as="geometry">
            <mxPoint x="2280.000000000001" y="454.34000000000015" as="sourcePoint" />
            <mxPoint x="2280.000000000001" y="404.34000000000015" as="targetPoint" />
          </mxGeometry>
        </mxCell>
        <mxCell id="ILecgsPwq-bgqkM6CZhe-447" value="&lt;div&gt;Nascita&lt;/div&gt;" style="text;html=1;strokeColor=none;fillColor=none;align=center;verticalAlign=middle;whiteSpace=wrap;rounded=0;" parent="1" vertex="1">
          <mxGeometry x="2250" y="474.3400000000001" width="60" height="30" as="geometry" />
        </mxCell>
        <mxCell id="ILecgsPwq-bgqkM6CZhe-448" value="" style="ellipse;whiteSpace=wrap;html=1;align=center;" parent="1" vertex="1">
          <mxGeometry x="2340" y="454.3400000000001" width="20" height="20" as="geometry" />
        </mxCell>
        <mxCell id="ILecgsPwq-bgqkM6CZhe-449" value="0;1" style="endArrow=none;html=1;rounded=0;startArrow=none;exitX=0.5;exitY=0;exitDx=0;exitDy=0;" parent="1" source="ILecgsPwq-bgqkM6CZhe-448" edge="1">
          <mxGeometry width="50" height="50" relative="1" as="geometry">
            <mxPoint x="2350" y="414.34000000000015" as="sourcePoint" />
            <mxPoint x="2350.000000000001" y="404.34000000000015" as="targetPoint" />
          </mxGeometry>
        </mxCell>
        <mxCell id="ILecgsPwq-bgqkM6CZhe-450" value="&lt;div&gt;Morte&lt;/div&gt;" style="text;html=1;strokeColor=none;fillColor=none;align=center;verticalAlign=middle;whiteSpace=wrap;rounded=0;" parent="1" vertex="1">
          <mxGeometry x="2320" y="474.3400000000001" width="60" height="30" as="geometry" />
        </mxCell>
        <mxCell id="ILecgsPwq-bgqkM6CZhe-451" value="" style="ellipse;whiteSpace=wrap;html=1;align=center;" parent="1" vertex="1">
          <mxGeometry x="2390" y="454.3400000000001" width="20" height="20" as="geometry" />
        </mxCell>
        <mxCell id="ILecgsPwq-bgqkM6CZhe-452" value="" style="endArrow=none;html=1;rounded=0;" parent="1" edge="1">
          <mxGeometry width="50" height="50" relative="1" as="geometry">
            <mxPoint x="2400.000000000001" y="454.34000000000015" as="sourcePoint" />
            <mxPoint x="2400.000000000001" y="404.34000000000015" as="targetPoint" />
          </mxGeometry>
        </mxCell>
        <mxCell id="ILecgsPwq-bgqkM6CZhe-453" value="&lt;div&gt;Nazionalità&lt;/div&gt;" style="text;html=1;strokeColor=none;fillColor=none;align=center;verticalAlign=middle;whiteSpace=wrap;rounded=0;" parent="1" vertex="1">
          <mxGeometry x="2370" y="470.3400000000001" width="60" height="30" as="geometry" />
        </mxCell>
        <mxCell id="ILecgsPwq-bgqkM6CZhe-454" value="&lt;div&gt;Codice&lt;/div&gt;" style="text;html=1;strokeColor=none;fillColor=none;align=center;verticalAlign=middle;whiteSpace=wrap;rounded=0;" parent="1" vertex="1">
          <mxGeometry x="290" y="685" width="60" height="30" as="geometry" />
        </mxCell>
        <mxCell id="ILecgsPwq-bgqkM6CZhe-455" value="" style="ellipse;whiteSpace=wrap;html=1;align=center;fillColor=#000000;" parent="1" vertex="1">
          <mxGeometry x="270" y="690" width="20" height="20" as="geometry" />
        </mxCell>
        <mxCell id="ILecgsPwq-bgqkM6CZhe-456" value="" style="endArrow=none;html=1;rounded=0;" parent="1" edge="1">
          <mxGeometry width="50" height="50" relative="1" as="geometry">
            <mxPoint x="270" y="700" as="sourcePoint" />
            <mxPoint x="230" y="700" as="targetPoint" />
          </mxGeometry>
        </mxCell>
        <mxCell id="ILecgsPwq-bgqkM6CZhe-457" value="" style="endArrow=none;html=1;rounded=0;fillColor=#000000;" parent="1" edge="1">
          <mxGeometry width="50" height="50" relative="1" as="geometry">
            <mxPoint x="230" y="970" as="sourcePoint" />
            <mxPoint x="230" y="670" as="targetPoint" />
          </mxGeometry>
        </mxCell>
        <mxCell id="ILecgsPwq-bgqkM6CZhe-458" value="" style="ellipse;whiteSpace=wrap;html=1;align=center;fillColor=#FFFFFF;" parent="1" vertex="1">
          <mxGeometry x="270" y="740" width="20" height="20" as="geometry" />
        </mxCell>
        <mxCell id="ILecgsPwq-bgqkM6CZhe-459" value="" style="endArrow=none;html=1;rounded=0;" parent="1" edge="1">
          <mxGeometry width="50" height="50" relative="1" as="geometry">
            <mxPoint x="270" y="749.6599999999999" as="sourcePoint" />
            <mxPoint x="230" y="749.6599999999999" as="targetPoint" />
          </mxGeometry>
        </mxCell>
        <mxCell id="ILecgsPwq-bgqkM6CZhe-460" value="&lt;div&gt;Nome&lt;/div&gt;" style="text;html=1;strokeColor=none;fillColor=none;align=center;verticalAlign=middle;whiteSpace=wrap;rounded=0;" parent="1" vertex="1">
          <mxGeometry x="290" y="735" width="60" height="30" as="geometry" />
        </mxCell>
        <mxCell id="ILecgsPwq-bgqkM6CZhe-461" value="Data creazione" style="text;html=1;strokeColor=none;fillColor=none;align=center;verticalAlign=middle;whiteSpace=wrap;rounded=0;" parent="1" vertex="1">
          <mxGeometry x="996" y="-85.66" width="60" height="30" as="geometry" />
        </mxCell>
        <mxCell id="ILecgsPwq-bgqkM6CZhe-462" value="" style="ellipse;whiteSpace=wrap;html=1;aspect=fixed;fillColor=#FFFFFF;" parent="1" vertex="1">
          <mxGeometry x="976" y="-80.66" width="20" height="20" as="geometry" />
        </mxCell>
        <mxCell id="ILecgsPwq-bgqkM6CZhe-463" value="&lt;div&gt;Nome&lt;/div&gt;" style="text;html=1;strokeColor=none;fillColor=none;align=center;verticalAlign=middle;whiteSpace=wrap;rounded=0;" parent="1" vertex="1">
          <mxGeometry x="985" y="119.34" width="60" height="30" as="geometry" />
        </mxCell>
        <mxCell id="ILecgsPwq-bgqkM6CZhe-464" value="" style="ellipse;whiteSpace=wrap;html=1;aspect=fixed;fillColor=#FFFFFF;" parent="1" vertex="1">
          <mxGeometry x="975" y="124.34" width="20" height="20" as="geometry" />
        </mxCell>
        <mxCell id="ILecgsPwq-bgqkM6CZhe-465" value="&lt;div&gt;Genere&lt;/div&gt;" style="text;html=1;strokeColor=none;fillColor=none;align=center;verticalAlign=middle;whiteSpace=wrap;rounded=0;" parent="1" vertex="1">
          <mxGeometry x="1000" y="-35.66" width="60" height="30" as="geometry" />
        </mxCell>
        <mxCell id="ILecgsPwq-bgqkM6CZhe-466" value="" style="ellipse;whiteSpace=wrap;html=1;aspect=fixed;fillColor=#FFFFFF;" parent="1" vertex="1">
          <mxGeometry x="976" y="-30.659999999999997" width="20" height="20" as="geometry" />
        </mxCell>
        <mxCell id="ILecgsPwq-bgqkM6CZhe-467" value="Quotazione" style="text;html=1;strokeColor=none;fillColor=none;align=center;verticalAlign=middle;whiteSpace=wrap;rounded=0;" parent="1" vertex="1">
          <mxGeometry x="999" y="4.340000000000003" width="60" height="30" as="geometry" />
        </mxCell>
        <mxCell id="ILecgsPwq-bgqkM6CZhe-468" value="" style="ellipse;whiteSpace=wrap;html=1;aspect=fixed;fillColor=#FFFFFF;" parent="1" vertex="1">
          <mxGeometry x="975" y="9.340000000000003" width="20" height="20" as="geometry" />
        </mxCell>
        <mxCell id="ILecgsPwq-bgqkM6CZhe-469" value="&lt;div&gt;Altezza&lt;/div&gt;" style="text;html=1;strokeColor=none;fillColor=none;align=center;verticalAlign=middle;whiteSpace=wrap;rounded=0;" parent="1" vertex="1">
          <mxGeometry x="987.5" y="39.34" width="60" height="30" as="geometry" />
        </mxCell>
        <mxCell id="ILecgsPwq-bgqkM6CZhe-470" value="" style="ellipse;whiteSpace=wrap;html=1;aspect=fixed;fillColor=#FFFFFF;" parent="1" vertex="1">
          <mxGeometry x="974" y="44.34" width="20" height="20" as="geometry" />
        </mxCell>
        <mxCell id="ILecgsPwq-bgqkM6CZhe-471" value="&lt;div&gt;Profondità&lt;/div&gt;" style="text;html=1;strokeColor=none;fillColor=none;align=center;verticalAlign=middle;whiteSpace=wrap;rounded=0;" parent="1" vertex="1">
          <mxGeometry x="994" y="64.34" width="60" height="30" as="geometry" />
        </mxCell>
        <mxCell id="ILecgsPwq-bgqkM6CZhe-472" value="&lt;div&gt;Larghezza&lt;/div&gt;" style="text;html=1;strokeColor=none;fillColor=none;align=center;verticalAlign=middle;whiteSpace=wrap;rounded=0;" parent="1" vertex="1">
          <mxGeometry x="996" y="89.34" width="60" height="30" as="geometry" />
        </mxCell>
        <mxCell id="ILecgsPwq-bgqkM6CZhe-473" value="" style="ellipse;whiteSpace=wrap;html=1;aspect=fixed;fillColor=#FFFFFF;" parent="1" vertex="1">
          <mxGeometry x="975" y="94.34" width="20" height="20" as="geometry" />
        </mxCell>
        <mxCell id="ILecgsPwq-bgqkM6CZhe-474" value="Numero" style="text;html=1;strokeColor=none;fillColor=none;align=center;verticalAlign=middle;whiteSpace=wrap;rounded=0;" parent="1" vertex="1">
          <mxGeometry x="988" y="174.34" width="60" height="30" as="geometry" />
        </mxCell>
        <mxCell id="ILecgsPwq-bgqkM6CZhe-475" value="" style="ellipse;whiteSpace=wrap;html=1;align=center;fillColor=#FFFFFF;" parent="1" vertex="1">
          <mxGeometry x="974" y="179.34" width="20" height="20" as="geometry" />
        </mxCell>
        <mxCell id="ILecgsPwq-bgqkM6CZhe-476" value="" style="ellipse;whiteSpace=wrap;html=1;align=center;" parent="1" vertex="1">
          <mxGeometry x="975" y="-130.66" width="20" height="20" as="geometry" />
        </mxCell>
        <mxCell id="ILecgsPwq-bgqkM6CZhe-477" value="&lt;div&gt;Tecnica&lt;/div&gt;" style="text;html=1;strokeColor=none;fillColor=none;align=center;verticalAlign=middle;whiteSpace=wrap;rounded=0;" parent="1" vertex="1">
          <mxGeometry x="993.5" y="-135.66" width="60" height="30" as="geometry" />
        </mxCell>
        <mxCell id="ILecgsPwq-bgqkM6CZhe-478" value="" style="endArrow=none;html=1;rounded=0;fillColor=#000000;entryX=0.69;entryY=1.008;entryDx=0;entryDy=0;entryPerimeter=0;" parent="1" edge="1">
          <mxGeometry width="50" height="50" relative="1" as="geometry">
            <mxPoint x="952" y="600" as="sourcePoint" />
            <mxPoint x="952" y="449.65999999999985" as="targetPoint" />
          </mxGeometry>
        </mxCell>
        <mxCell id="ILecgsPwq-bgqkM6CZhe-479" value="" style="ellipse;whiteSpace=wrap;html=1;align=center;" parent="1" vertex="1">
          <mxGeometry x="982" y="459.34000000000003" width="20" height="20" as="geometry" />
        </mxCell>
        <mxCell id="ILecgsPwq-bgqkM6CZhe-480" value="" style="endArrow=none;html=1;rounded=0;entryX=0;entryY=0.5;entryDx=0;entryDy=0;" parent="1" target="ILecgsPwq-bgqkM6CZhe-479" edge="1">
          <mxGeometry relative="1" as="geometry">
            <mxPoint x="952" y="469.34000000000015" as="sourcePoint" />
            <mxPoint x="972" y="469" as="targetPoint" />
          </mxGeometry>
        </mxCell>
        <mxCell id="ILecgsPwq-bgqkM6CZhe-481" value="&lt;div&gt;Peso&lt;/div&gt;" style="text;html=1;strokeColor=none;fillColor=none;align=center;verticalAlign=middle;whiteSpace=wrap;rounded=0;" parent="1" vertex="1">
          <mxGeometry x="990" y="454.34000000000003" width="60" height="30" as="geometry" />
        </mxCell>
        <mxCell id="ILecgsPwq-bgqkM6CZhe-482" value="" style="endArrow=none;html=1;rounded=0;fontFamily=Helvetica;fillColor=#000000;entryX=0;entryY=0.5;entryDx=0;entryDy=0;" parent="1" edge="1">
          <mxGeometry width="50" height="50" relative="1" as="geometry">
            <mxPoint x="949" y="54.34000000000046" as="sourcePoint" />
            <mxPoint x="974" y="54.34000000000046" as="targetPoint" />
          </mxGeometry>
        </mxCell>
        <mxCell id="ILecgsPwq-bgqkM6CZhe-483" value="" style="endArrow=none;html=1;rounded=0;fontFamily=Helvetica;fillColor=#000000;exitX=0.5;exitY=0;exitDx=0;exitDy=0;" parent="1" edge="1">
          <mxGeometry width="50" height="50" relative="1" as="geometry">
            <mxPoint x="960" y="219.34000000000046" as="sourcePoint" />
            <mxPoint x="960" y="124.34000000000046" as="targetPoint" />
          </mxGeometry>
        </mxCell>
        <mxCell id="ILecgsPwq-bgqkM6CZhe-484" value="" style="ellipse;whiteSpace=wrap;html=1;align=center;fillColor=#000000;" parent="1" vertex="1">
          <mxGeometry x="951" y="219.99999999999986" width="20" height="20" as="geometry" />
        </mxCell>
        <mxCell id="ILecgsPwq-bgqkM6CZhe-485" value="" style="ellipse;whiteSpace=wrap;html=1;align=center;fillColor=#FFFFFF;" parent="1" vertex="1">
          <mxGeometry x="270" y="790" width="20" height="20" as="geometry" />
        </mxCell>
        <mxCell id="ILecgsPwq-bgqkM6CZhe-486" value="" style="endArrow=none;html=1;rounded=0;" parent="1" edge="1">
          <mxGeometry width="50" height="50" relative="1" as="geometry">
            <mxPoint x="270" y="800" as="sourcePoint" />
            <mxPoint x="230" y="800" as="targetPoint" />
          </mxGeometry>
        </mxCell>
        <mxCell id="ILecgsPwq-bgqkM6CZhe-487" value="&lt;div&gt;Orario apertura&lt;/div&gt;" style="text;html=1;strokeColor=none;fillColor=none;align=center;verticalAlign=middle;whiteSpace=wrap;rounded=0;" parent="1" vertex="1">
          <mxGeometry x="290" y="785" width="60" height="30" as="geometry" />
        </mxCell>
        <mxCell id="ILecgsPwq-bgqkM6CZhe-488" value="" style="ellipse;whiteSpace=wrap;html=1;align=center;fillColor=#FFFFFF;" parent="1" vertex="1">
          <mxGeometry x="270" y="835" width="20" height="20" as="geometry" />
        </mxCell>
        <mxCell id="ILecgsPwq-bgqkM6CZhe-489" value="" style="endArrow=none;html=1;rounded=0;" parent="1" edge="1">
          <mxGeometry width="50" height="50" relative="1" as="geometry">
            <mxPoint x="270" y="844.6599999999999" as="sourcePoint" />
            <mxPoint x="230" y="844.6599999999999" as="targetPoint" />
          </mxGeometry>
        </mxCell>
        <mxCell id="ILecgsPwq-bgqkM6CZhe-490" value="Orario chiusura" style="text;html=1;strokeColor=none;fillColor=none;align=center;verticalAlign=middle;whiteSpace=wrap;rounded=0;" parent="1" vertex="1">
          <mxGeometry x="290" y="830" width="60" height="30" as="geometry" />
        </mxCell>
        <mxCell id="ILecgsPwq-bgqkM6CZhe-491" value="Via" style="text;html=1;strokeColor=none;fillColor=none;align=center;verticalAlign=middle;whiteSpace=wrap;rounded=0;" parent="1" vertex="1">
          <mxGeometry x="280" y="865" width="60" height="30" as="geometry" />
        </mxCell>
        <mxCell id="ILecgsPwq-bgqkM6CZhe-492" value="" style="ellipse;whiteSpace=wrap;html=1;aspect=fixed;fillColor=#FFFFFF;" parent="1" vertex="1">
          <mxGeometry x="270" y="870" width="20" height="20" as="geometry" />
        </mxCell>
        <mxCell id="ILecgsPwq-bgqkM6CZhe-493" value="CAP" style="text;html=1;strokeColor=none;fillColor=none;align=center;verticalAlign=middle;whiteSpace=wrap;rounded=0;" parent="1" vertex="1">
          <mxGeometry x="280" y="897" width="60" height="30" as="geometry" />
        </mxCell>
        <mxCell id="ILecgsPwq-bgqkM6CZhe-494" value="" style="endArrow=none;html=1;rounded=0;fontFamily=Helvetica;fillColor=#000000;entryX=0;entryY=0.5;entryDx=0;entryDy=0;" parent="1" target="ILecgsPwq-bgqkM6CZhe-492" edge="1">
          <mxGeometry width="50" height="50" relative="1" as="geometry">
            <mxPoint x="230" y="880" as="sourcePoint" />
            <mxPoint x="370" y="895" as="targetPoint" />
          </mxGeometry>
        </mxCell>
        <mxCell id="ILecgsPwq-bgqkM6CZhe-495" value="Provincia" style="text;html=1;strokeColor=none;fillColor=none;align=center;verticalAlign=middle;whiteSpace=wrap;rounded=0;" parent="1" vertex="1">
          <mxGeometry x="290" y="925" width="60" height="30" as="geometry" />
        </mxCell>
        <mxCell id="ILecgsPwq-bgqkM6CZhe-496" value="" style="ellipse;whiteSpace=wrap;html=1;align=center;color=black;fillColor=#000000;" parent="1" vertex="1">
          <mxGeometry x="-52" y="845" width="20" height="20" as="geometry" />
        </mxCell>
        <mxCell id="ILecgsPwq-bgqkM6CZhe-497" value="" style="endArrow=none;html=1;rounded=0;entryX=0.5;entryY=1;entryDx=0;entryDy=0;" parent="1" target="ILecgsPwq-bgqkM6CZhe-424" edge="1">
          <mxGeometry relative="1" as="geometry">
            <mxPoint x="-102" y="1020" as="sourcePoint" />
            <mxPoint x="296.0000000000002" y="990" as="targetPoint" />
          </mxGeometry>
        </mxCell>
        <mxCell id="ILecgsPwq-bgqkM6CZhe-498" value="&lt;div&gt;Nome&lt;/div&gt;" style="text;html=1;strokeColor=none;fillColor=none;align=center;verticalAlign=middle;whiteSpace=wrap;rounded=0;" parent="1" vertex="1">
          <mxGeometry x="-32" y="895" width="60" height="30" as="geometry" />
        </mxCell>
        <mxCell id="ILecgsPwq-bgqkM6CZhe-499" value="&lt;div&gt;Cognome&lt;/div&gt;" style="text;html=1;strokeColor=none;fillColor=none;align=center;verticalAlign=middle;whiteSpace=wrap;rounded=0;" parent="1" vertex="1">
          <mxGeometry x="-25" y="947" width="60" height="30" as="geometry" />
        </mxCell>
        <mxCell id="ILecgsPwq-bgqkM6CZhe-500" value="&lt;div&gt;Data di nascita&lt;/div&gt;" style="text;html=1;strokeColor=none;fillColor=none;align=center;verticalAlign=middle;whiteSpace=wrap;rounded=0;" parent="1" vertex="1">
          <mxGeometry x="-26" y="1005" width="60" height="30" as="geometry" />
        </mxCell>
        <mxCell id="ILecgsPwq-bgqkM6CZhe-501" value="&lt;div&gt;ID Cliente&lt;/div&gt;" style="text;html=1;strokeColor=none;fillColor=none;align=center;verticalAlign=middle;whiteSpace=wrap;rounded=0;" parent="1" vertex="1">
          <mxGeometry x="-25" y="843" width="60" height="30" as="geometry" />
        </mxCell>
        <mxCell id="ILecgsPwq-bgqkM6CZhe-502" value="" style="endArrow=none;html=1;rounded=0;" parent="1" edge="1">
          <mxGeometry relative="1" as="geometry">
            <mxPoint x="-100" y="855" as="sourcePoint" />
            <mxPoint x="-50" y="855" as="targetPoint" />
          </mxGeometry>
        </mxCell>
        <mxCell id="ILecgsPwq-bgqkM6CZhe-503" value="" style="ellipse;whiteSpace=wrap;html=1;align=center;" parent="1" vertex="1">
          <mxGeometry x="-50" y="897" width="20" height="20" as="geometry" />
        </mxCell>
        <mxCell id="ILecgsPwq-bgqkM6CZhe-504" value="" style="endArrow=none;html=1;rounded=0;" parent="1" edge="1">
          <mxGeometry relative="1" as="geometry">
            <mxPoint x="-100" y="907" as="sourcePoint" />
            <mxPoint x="-50" y="907" as="targetPoint" />
          </mxGeometry>
        </mxCell>
        <mxCell id="ILecgsPwq-bgqkM6CZhe-505" value="" style="ellipse;whiteSpace=wrap;html=1;align=center;" parent="1" vertex="1">
          <mxGeometry x="-50" y="952" width="20" height="20" as="geometry" />
        </mxCell>
        <mxCell id="ILecgsPwq-bgqkM6CZhe-506" value="" style="endArrow=none;html=1;rounded=0;" parent="1" edge="1">
          <mxGeometry relative="1" as="geometry">
            <mxPoint x="-100" y="962" as="sourcePoint" />
            <mxPoint x="-50" y="962" as="targetPoint" />
          </mxGeometry>
        </mxCell>
        <mxCell id="ILecgsPwq-bgqkM6CZhe-507" value="" style="ellipse;whiteSpace=wrap;html=1;align=center;" parent="1" vertex="1">
          <mxGeometry x="-51" y="1010" width="20" height="20" as="geometry" />
        </mxCell>
        <mxCell id="ILecgsPwq-bgqkM6CZhe-508" value="" style="endArrow=none;html=1;rounded=0;" parent="1" edge="1">
          <mxGeometry relative="1" as="geometry">
            <mxPoint x="-101" y="1020" as="sourcePoint" />
            <mxPoint x="-51" y="1020" as="targetPoint" />
          </mxGeometry>
        </mxCell>
        <mxCell id="ILecgsPwq-bgqkM6CZhe-509" value="Visita" style="whiteSpace=wrap;html=1;align=center;" parent="1" vertex="1">
          <mxGeometry x="-560" y="790" width="100" height="40" as="geometry" />
        </mxCell>
        <mxCell id="ILecgsPwq-bgqkM6CZhe-510" value="" style="endArrow=none;html=1;rounded=0;" parent="1" edge="1">
          <mxGeometry relative="1" as="geometry">
            <mxPoint x="-511" y="910" as="sourcePoint" />
            <mxPoint x="-511" y="830" as="targetPoint" />
          </mxGeometry>
        </mxCell>
        <mxCell id="ILecgsPwq-bgqkM6CZhe-511" value="&lt;div&gt;DataOraIngresso&lt;/div&gt;" style="text;html=1;strokeColor=none;fillColor=none;align=center;verticalAlign=middle;whiteSpace=wrap;rounded=0;" parent="1" vertex="1">
          <mxGeometry x="-418" y="843" width="60" height="30" as="geometry" />
        </mxCell>
        <mxCell id="ILecgsPwq-bgqkM6CZhe-512" value="&lt;div&gt;DataOraUscita&lt;/div&gt;" style="text;html=1;strokeColor=none;fillColor=none;align=center;verticalAlign=middle;whiteSpace=wrap;rounded=0;" parent="1" vertex="1">
          <mxGeometry x="-426" y="895" width="60" height="30" as="geometry" />
        </mxCell>
        <mxCell id="ILecgsPwq-bgqkM6CZhe-513" value="" style="ellipse;whiteSpace=wrap;html=1;align=center;" parent="1" vertex="1">
          <mxGeometry x="-459" y="848" width="20" height="20" as="geometry" />
        </mxCell>
        <mxCell id="ILecgsPwq-bgqkM6CZhe-514" value="" style="endArrow=none;html=1;rounded=0;" parent="1" edge="1">
          <mxGeometry relative="1" as="geometry">
            <mxPoint x="-509" y="858" as="sourcePoint" />
            <mxPoint x="-459" y="858" as="targetPoint" />
          </mxGeometry>
        </mxCell>
        <mxCell id="ILecgsPwq-bgqkM6CZhe-515" value="" style="ellipse;whiteSpace=wrap;html=1;align=center;" parent="1" vertex="1">
          <mxGeometry x="-461" y="900" width="20" height="20" as="geometry" />
        </mxCell>
        <mxCell id="ILecgsPwq-bgqkM6CZhe-516" value="" style="endArrow=none;html=1;rounded=0;" parent="1" edge="1">
          <mxGeometry relative="1" as="geometry">
            <mxPoint x="-511" y="910" as="sourcePoint" />
            <mxPoint x="-461" y="910" as="targetPoint" />
          </mxGeometry>
        </mxCell>
        <mxCell id="ILecgsPwq-bgqkM6CZhe-517" value="Svolgere" style="shape=rhombus;perimeter=rhombusPerimeter;whiteSpace=wrap;html=1;align=center;" parent="1" vertex="1">
          <mxGeometry x="-360" y="780" width="120" height="60" as="geometry" />
        </mxCell>
        <mxCell id="ILecgsPwq-bgqkM6CZhe-518" value="1,N" style="endArrow=none;html=1;rounded=0;entryX=0;entryY=0.5;entryDx=0;entryDy=0;" parent="1" target="ILecgsPwq-bgqkM6CZhe-424" edge="1">
          <mxGeometry relative="1" as="geometry">
            <mxPoint x="-240" y="810" as="sourcePoint" />
            <mxPoint x="-170" y="810" as="targetPoint" />
          </mxGeometry>
        </mxCell>
        <mxCell id="ILecgsPwq-bgqkM6CZhe-519" value="1;1" style="endArrow=none;html=1;rounded=0;entryX=0;entryY=0.5;entryDx=0;entryDy=0;exitX=1;exitY=0.5;exitDx=0;exitDy=0;" parent="1" source="ILecgsPwq-bgqkM6CZhe-509" target="ILecgsPwq-bgqkM6CZhe-517" edge="1">
          <mxGeometry relative="1" as="geometry">
            <mxPoint x="-440" y="810" as="sourcePoint" />
            <mxPoint x="-369" y="809" as="targetPoint" />
          </mxGeometry>
        </mxCell>
        <mxCell id="ILecgsPwq-bgqkM6CZhe-520" value="1;1" style="endArrow=none;html=1;rounded=0;entryX=0;entryY=0.5;entryDx=0;entryDy=0;" parent="1" target="ILecgsPwq-bgqkM6CZhe-425" edge="1">
          <mxGeometry relative="1" as="geometry">
            <mxPoint x="-510" y="790" as="sourcePoint" />
            <mxPoint x="-459" y="570" as="targetPoint" />
            <Array as="points">
              <mxPoint x="-510" y="650" />
            </Array>
          </mxGeometry>
        </mxCell>
        <mxCell id="ILecgsPwq-bgqkM6CZhe-521" value="" style="endArrow=none;html=1;rounded=0;" parent="1" edge="1">
          <mxGeometry width="50" height="50" relative="1" as="geometry">
            <mxPoint x="-530" y="760" as="sourcePoint" />
            <mxPoint x="-480" y="930" as="targetPoint" />
            <Array as="points">
              <mxPoint x="-370" y="760" />
              <mxPoint x="-370" y="840" />
              <mxPoint x="-480" y="840" />
            </Array>
          </mxGeometry>
        </mxCell>
        <mxCell id="ILecgsPwq-bgqkM6CZhe-522" value="" style="ellipse;whiteSpace=wrap;html=1;align=center;color=black;fillColor=#000000;" parent="1" vertex="1">
          <mxGeometry x="-550" y="750" width="20" height="20" as="geometry" />
        </mxCell>
        <mxCell id="ILecgsPwq-bgqkM6CZhe-523" value="" style="endArrow=none;html=1;rounded=0;fillColor=#000000;entryX=0.6;entryY=1.015;entryDx=0;entryDy=0;entryPerimeter=0;" parent="1" target="ILecgsPwq-bgqkM6CZhe-422" edge="1">
          <mxGeometry width="50" height="50" relative="1" as="geometry">
            <mxPoint x="960" y="1057" as="sourcePoint" />
            <mxPoint x="960" y="1012" as="targetPoint" />
          </mxGeometry>
        </mxCell>
        <mxCell id="ILecgsPwq-bgqkM6CZhe-524" value="" style="ellipse;whiteSpace=wrap;html=1;align=center;" parent="1" vertex="1">
          <mxGeometry x="986" y="1047" width="20" height="20" as="geometry" />
        </mxCell>
        <mxCell id="ILecgsPwq-bgqkM6CZhe-525" value="" style="endArrow=none;html=1;rounded=0;" parent="1" target="ILecgsPwq-bgqkM6CZhe-524" edge="1">
          <mxGeometry relative="1" as="geometry">
            <mxPoint x="960" y="1057" as="sourcePoint" />
            <mxPoint x="1020" y="1057" as="targetPoint" />
          </mxGeometry>
        </mxCell>
        <mxCell id="ILecgsPwq-bgqkM6CZhe-526" value="&lt;div&gt;Descrizione&lt;/div&gt;" style="text;html=1;strokeColor=none;fillColor=none;align=center;verticalAlign=middle;whiteSpace=wrap;rounded=0;" parent="1" vertex="1">
          <mxGeometry x="1010" y="1042" width="60" height="30" as="geometry" />
        </mxCell>
        <mxCell id="ILecgsPwq-bgqkM6CZhe-527" value="1,1" style="edgeStyle=orthogonalEdgeStyle;rounded=0;orthogonalLoop=1;jettySize=auto;html=1;endArrow=none;endFill=0;" parent="1" source="ILecgsPwq-bgqkM6CZhe-529" target="ILecgsPwq-bgqkM6CZhe-531" edge="1">
          <mxGeometry relative="1" as="geometry" />
        </mxCell>
        <mxCell id="ILecgsPwq-bgqkM6CZhe-528" value="1,1" style="edgeStyle=orthogonalEdgeStyle;rounded=0;orthogonalLoop=1;jettySize=auto;html=1;endArrow=none;endFill=0;" parent="1" source="ILecgsPwq-bgqkM6CZhe-529" edge="1">
          <mxGeometry relative="1" as="geometry">
            <mxPoint x="550" y="424.34000000000015" as="targetPoint" />
          </mxGeometry>
        </mxCell>
        <mxCell id="ILecgsPwq-bgqkM6CZhe-529" value="Mostra" style="whiteSpace=wrap;html=1;align=center;" parent="1" vertex="1">
          <mxGeometry x="230" y="404.34000000000003" width="100" height="40" as="geometry" />
        </mxCell>
        <mxCell id="ILecgsPwq-bgqkM6CZhe-530" value="1,N" style="edgeStyle=orthogonalEdgeStyle;rounded=0;orthogonalLoop=1;jettySize=auto;html=1;entryX=0.5;entryY=0;entryDx=0;entryDy=0;endArrow=none;endFill=0;" parent="1" source="ILecgsPwq-bgqkM6CZhe-531" target="ILecgsPwq-bgqkM6CZhe-417" edge="1">
          <mxGeometry relative="1" as="geometry" />
        </mxCell>
        <mxCell id="ILecgsPwq-bgqkM6CZhe-531" value="Esporre" style="shape=rhombus;perimeter=rhombusPerimeter;whiteSpace=wrap;html=1;align=center;" parent="1" vertex="1">
          <mxGeometry x="220" y="509.34000000000003" width="120" height="60" as="geometry" />
        </mxCell>
        <mxCell id="ILecgsPwq-bgqkM6CZhe-532" value="" style="endArrow=none;html=1;rounded=0;fillColor=#000000;exitX=0.5;exitY=0;exitDx=0;exitDy=0;" parent="1" edge="1">
          <mxGeometry width="50" height="50" relative="1" as="geometry">
            <mxPoint x="280" y="404.34000000000015" as="sourcePoint" />
            <mxPoint x="280" y="329.34000000000015" as="targetPoint" />
          </mxGeometry>
        </mxCell>
        <mxCell id="ILecgsPwq-bgqkM6CZhe-533" value="" style="ellipse;whiteSpace=wrap;html=1;align=center;" parent="1" vertex="1">
          <mxGeometry x="380" y="319.34000000000003" width="20" height="20" as="geometry" />
        </mxCell>
        <mxCell id="ILecgsPwq-bgqkM6CZhe-534" value="" style="endArrow=none;html=1;rounded=0;" parent="1" target="ILecgsPwq-bgqkM6CZhe-533" edge="1">
          <mxGeometry relative="1" as="geometry">
            <mxPoint x="280" y="329.34000000000015" as="sourcePoint" />
            <mxPoint x="340" y="329.3399999999999" as="targetPoint" />
          </mxGeometry>
        </mxCell>
        <mxCell id="ILecgsPwq-bgqkM6CZhe-535" value="DataOraInizio" style="text;html=1;strokeColor=none;fillColor=none;align=center;verticalAlign=middle;whiteSpace=wrap;rounded=0;" parent="1" vertex="1">
          <mxGeometry x="412" y="314.34000000000003" width="60" height="30" as="geometry" />
        </mxCell>
        <mxCell id="ILecgsPwq-bgqkM6CZhe-536" value="" style="ellipse;whiteSpace=wrap;html=1;align=center;" parent="1" vertex="1">
          <mxGeometry x="380" y="369.34000000000003" width="20" height="20" as="geometry" />
        </mxCell>
        <mxCell id="ILecgsPwq-bgqkM6CZhe-537" value="" style="endArrow=none;html=1;rounded=0;" parent="1" target="ILecgsPwq-bgqkM6CZhe-536" edge="1">
          <mxGeometry relative="1" as="geometry">
            <mxPoint x="280" y="379.34000000000015" as="sourcePoint" />
            <mxPoint x="340" y="379.3399999999999" as="targetPoint" />
          </mxGeometry>
        </mxCell>
        <mxCell id="ILecgsPwq-bgqkM6CZhe-538" value="&lt;div&gt;DataOraFine&lt;/div&gt;" style="text;html=1;strokeColor=none;fillColor=none;align=center;verticalAlign=middle;whiteSpace=wrap;rounded=0;" parent="1" vertex="1">
          <mxGeometry x="409" y="364.34000000000003" width="60" height="30" as="geometry" />
        </mxCell>
        <mxCell id="ILecgsPwq-bgqkM6CZhe-539" value="" style="endArrow=none;html=1;rounded=0;" parent="1" edge="1">
          <mxGeometry width="50" height="50" relative="1" as="geometry">
            <mxPoint x="250" y="460" as="sourcePoint" />
            <mxPoint x="360" y="300.00000000000045" as="targetPoint" />
            <Array as="points">
              <mxPoint x="360" y="460" />
              <mxPoint x="360" y="410" />
            </Array>
          </mxGeometry>
        </mxCell>
        <mxCell id="ILecgsPwq-bgqkM6CZhe-540" value="" style="ellipse;whiteSpace=wrap;html=1;align=center;fillColor=#000000;" parent="1" vertex="1">
          <mxGeometry x="350" y="289.34000000000003" width="20" height="20" as="geometry" />
        </mxCell>
        <mxCell id="ILecgsPwq-bgqkM6CZhe-541" value="" style="ellipse;whiteSpace=wrap;html=1;align=center;fillColor=#FFFFFF;" parent="1" vertex="1">
          <mxGeometry x="270" y="960" width="20" height="20" as="geometry" />
        </mxCell>
        <mxCell id="ILecgsPwq-bgqkM6CZhe-542" value="" style="endArrow=none;html=1;rounded=0;" parent="1" edge="1">
          <mxGeometry width="50" height="50" relative="1" as="geometry">
            <mxPoint x="270" y="970" as="sourcePoint" />
            <mxPoint x="230" y="970" as="targetPoint" />
          </mxGeometry>
        </mxCell>
        <mxCell id="ILecgsPwq-bgqkM6CZhe-543" value="Numero di viste giornaliere" style="text;html=1;strokeColor=none;fillColor=none;align=center;verticalAlign=middle;whiteSpace=wrap;rounded=0;" parent="1" vertex="1">
          <mxGeometry x="290" y="960" width="60" height="30" as="geometry" />
        </mxCell>
        <mxCell id="ILecgsPwq-bgqkM6CZhe-544" value="" style="endArrow=none;html=1;rounded=0;entryX=0.69;entryY=1;entryDx=0;entryDy=0;entryPerimeter=0;" parent="1" edge="1">
          <mxGeometry relative="1" as="geometry">
            <mxPoint x="960" y="1317" as="sourcePoint" />
            <mxPoint x="960" y="1027" as="targetPoint" />
          </mxGeometry>
        </mxCell>
        <mxCell id="ILecgsPwq-bgqkM6CZhe-545" value="" style="endArrow=none;html=1;rounded=0;entryX=0;entryY=0.5;entryDx=0;entryDy=0;" parent="1" edge="1">
          <mxGeometry relative="1" as="geometry">
            <mxPoint x="960" y="1317" as="sourcePoint" />
            <mxPoint x="984.9999999999836" y="1317" as="targetPoint" />
          </mxGeometry>
        </mxCell>
        <mxCell id="ILecgsPwq-bgqkM6CZhe-546" value="" style="endArrow=none;html=1;rounded=0;entryX=0;entryY=0.5;entryDx=0;entryDy=0;" parent="1" edge="1">
          <mxGeometry relative="1" as="geometry">
            <mxPoint x="960" y="1147" as="sourcePoint" />
            <mxPoint x="985" y="1147" as="targetPoint" />
          </mxGeometry>
        </mxCell>
        <mxCell id="ILecgsPwq-bgqkM6CZhe-547" value="" style="endArrow=none;html=1;rounded=0;entryX=0;entryY=0.5;entryDx=0;entryDy=0;" parent="1" edge="1">
          <mxGeometry relative="1" as="geometry">
            <mxPoint x="961" y="1107" as="sourcePoint" />
            <mxPoint x="986" y="1107" as="targetPoint" />
          </mxGeometry>
        </mxCell>
        <mxCell id="ILecgsPwq-bgqkM6CZhe-548" value="" style="endArrow=none;html=1;rounded=0;entryX=0;entryY=0.5;entryDx=0;entryDy=0;" parent="1" edge="1">
          <mxGeometry relative="1" as="geometry">
            <mxPoint x="960" y="1262" as="sourcePoint" />
            <mxPoint x="985" y="1262" as="targetPoint" />
          </mxGeometry>
        </mxCell>
        <mxCell id="ILecgsPwq-bgqkM6CZhe-549" value="" style="endArrow=none;html=1;rounded=0;entryX=0;entryY=0.5;entryDx=0;entryDy=0;" parent="1" target="ILecgsPwq-bgqkM6CZhe-563" edge="1">
          <mxGeometry relative="1" as="geometry">
            <mxPoint x="960" y="1207" as="sourcePoint" />
            <mxPoint x="1136" y="1207" as="targetPoint" />
          </mxGeometry>
        </mxCell>
        <mxCell id="ILecgsPwq-bgqkM6CZhe-550" value="" style="endArrow=none;html=1;rounded=0;entryX=0;entryY=0.5;entryDx=0;entryDy=0;" parent="1" target="ILecgsPwq-bgqkM6CZhe-565" edge="1">
          <mxGeometry relative="1" as="geometry">
            <mxPoint x="960" y="1237" as="sourcePoint" />
            <mxPoint x="1119" y="1232" as="targetPoint" />
          </mxGeometry>
        </mxCell>
        <mxCell id="ILecgsPwq-bgqkM6CZhe-551" value="" style="endArrow=none;html=1;rounded=0;entryX=0;entryY=0.5;entryDx=0;entryDy=0;" parent="1" target="ILecgsPwq-bgqkM6CZhe-553" edge="1">
          <mxGeometry relative="1" as="geometry">
            <mxPoint x="960" y="1017.6599999999999" as="sourcePoint" />
            <mxPoint x="980" y="1017.6600000000001" as="targetPoint" />
          </mxGeometry>
        </mxCell>
        <mxCell id="ILecgsPwq-bgqkM6CZhe-552" value="Data creazione" style="text;html=1;strokeColor=none;fillColor=none;align=center;verticalAlign=middle;whiteSpace=wrap;rounded=0;" parent="1" vertex="1">
          <mxGeometry x="1010" y="1002.6600000000001" width="60" height="30" as="geometry" />
        </mxCell>
        <mxCell id="ILecgsPwq-bgqkM6CZhe-553" value="" style="ellipse;whiteSpace=wrap;html=1;aspect=fixed;fillColor=#FFFFFF;" parent="1" vertex="1">
          <mxGeometry x="986" y="1007.6600000000001" width="20" height="20" as="geometry" />
        </mxCell>
        <mxCell id="ILecgsPwq-bgqkM6CZhe-554" value="&lt;div&gt;Nome&lt;/div&gt;" style="text;html=1;strokeColor=none;fillColor=none;align=center;verticalAlign=middle;whiteSpace=wrap;rounded=0;" parent="1" vertex="1">
          <mxGeometry x="994" y="1247" width="60" height="30" as="geometry" />
        </mxCell>
        <mxCell id="ILecgsPwq-bgqkM6CZhe-555" value="" style="ellipse;whiteSpace=wrap;html=1;aspect=fixed;fillColor=#FFFFFF;" parent="1" vertex="1">
          <mxGeometry x="985" y="1252" width="20" height="20" as="geometry" />
        </mxCell>
        <mxCell id="ILecgsPwq-bgqkM6CZhe-556" value="&lt;div&gt;Genere&lt;/div&gt;" style="text;html=1;strokeColor=none;fillColor=none;align=center;verticalAlign=middle;whiteSpace=wrap;rounded=0;" parent="1" vertex="1">
          <mxGeometry x="1010" y="1092" width="60" height="30" as="geometry" />
        </mxCell>
        <mxCell id="ILecgsPwq-bgqkM6CZhe-557" value="" style="ellipse;whiteSpace=wrap;html=1;aspect=fixed;fillColor=#FFFFFF;" parent="1" vertex="1">
          <mxGeometry x="986" y="1097" width="20" height="20" as="geometry" />
        </mxCell>
        <mxCell id="ILecgsPwq-bgqkM6CZhe-558" value="Quotazione" style="text;html=1;strokeColor=none;fillColor=none;align=center;verticalAlign=middle;whiteSpace=wrap;rounded=0;" parent="1" vertex="1">
          <mxGeometry x="1009" y="1132" width="60" height="30" as="geometry" />
        </mxCell>
        <mxCell id="ILecgsPwq-bgqkM6CZhe-559" value="" style="ellipse;whiteSpace=wrap;html=1;aspect=fixed;fillColor=#FFFFFF;" parent="1" vertex="1">
          <mxGeometry x="985" y="1137" width="20" height="20" as="geometry" />
        </mxCell>
        <mxCell id="ILecgsPwq-bgqkM6CZhe-560" value="&lt;div&gt;Altezza&lt;/div&gt;" style="text;html=1;strokeColor=none;fillColor=none;align=center;verticalAlign=middle;whiteSpace=wrap;rounded=0;" parent="1" vertex="1">
          <mxGeometry x="1000" y="1165" width="60" height="30" as="geometry" />
        </mxCell>
        <mxCell id="ILecgsPwq-bgqkM6CZhe-561" value="" style="ellipse;whiteSpace=wrap;html=1;aspect=fixed;fillColor=#FFFFFF;" parent="1" vertex="1">
          <mxGeometry x="985" y="1170" width="20" height="20" as="geometry" />
        </mxCell>
        <mxCell id="ILecgsPwq-bgqkM6CZhe-562" value="&lt;div&gt;Profondità&lt;/div&gt;" style="text;html=1;strokeColor=none;fillColor=none;align=center;verticalAlign=middle;whiteSpace=wrap;rounded=0;" parent="1" vertex="1">
          <mxGeometry x="1005" y="1192" width="60" height="30" as="geometry" />
        </mxCell>
        <mxCell id="ILecgsPwq-bgqkM6CZhe-563" value="" style="ellipse;whiteSpace=wrap;html=1;aspect=fixed;fillColor=#FFFFFF;" parent="1" vertex="1">
          <mxGeometry x="986" y="1197" width="20" height="20" as="geometry" />
        </mxCell>
        <mxCell id="ILecgsPwq-bgqkM6CZhe-564" value="&lt;div&gt;Larghezza&lt;/div&gt;" style="text;html=1;strokeColor=none;fillColor=none;align=center;verticalAlign=middle;whiteSpace=wrap;rounded=0;" parent="1" vertex="1">
          <mxGeometry x="1005" y="1222" width="60" height="30" as="geometry" />
        </mxCell>
        <mxCell id="ILecgsPwq-bgqkM6CZhe-565" value="" style="ellipse;whiteSpace=wrap;html=1;aspect=fixed;fillColor=#FFFFFF;" parent="1" vertex="1">
          <mxGeometry x="985" y="1227" width="20" height="20" as="geometry" />
        </mxCell>
        <mxCell id="ILecgsPwq-bgqkM6CZhe-566" value="Numero" style="text;html=1;strokeColor=none;fillColor=none;align=center;verticalAlign=middle;whiteSpace=wrap;rounded=0;" parent="1" vertex="1">
          <mxGeometry x="1005" y="1302" width="60" height="30" as="geometry" />
        </mxCell>
        <mxCell id="ILecgsPwq-bgqkM6CZhe-567" value="" style="ellipse;whiteSpace=wrap;html=1;align=center;fillColor=#FFFFFF;" parent="1" vertex="1">
          <mxGeometry x="985" y="1307" width="20" height="20" as="geometry" />
        </mxCell>
        <mxCell id="ILecgsPwq-bgqkM6CZhe-568" value="" style="endArrow=none;html=1;rounded=0;fontFamily=Helvetica;fillColor=#000000;entryX=0;entryY=0.5;entryDx=0;entryDy=0;" parent="1" target="ILecgsPwq-bgqkM6CZhe-561" edge="1">
          <mxGeometry width="50" height="50" relative="1" as="geometry">
            <mxPoint x="960" y="1180" as="sourcePoint" />
            <mxPoint x="1079" y="1192" as="targetPoint" />
          </mxGeometry>
        </mxCell>
        <mxCell id="ILecgsPwq-bgqkM6CZhe-569" value="" style="endArrow=none;html=1;rounded=0;fontFamily=Helvetica;fillColor=#000000;exitX=0.5;exitY=0;exitDx=0;exitDy=0;" parent="1" edge="1">
          <mxGeometry width="50" height="50" relative="1" as="geometry">
            <mxPoint x="970" y="1347" as="sourcePoint" />
            <mxPoint x="970" y="1252" as="targetPoint" />
          </mxGeometry>
        </mxCell>
        <mxCell id="ILecgsPwq-bgqkM6CZhe-570" value="" style="ellipse;whiteSpace=wrap;html=1;align=center;fillColor=#000000;" parent="1" vertex="1">
          <mxGeometry x="961" y="1347.6599999999999" width="20" height="20" as="geometry" />
        </mxCell>
        <mxCell id="ILecgsPwq-bgqkM6CZhe-571" value="" style="endArrow=none;html=1;rounded=0;entryX=0.69;entryY=1;entryDx=0;entryDy=0;entryPerimeter=0;" parent="1" edge="1">
          <mxGeometry relative="1" as="geometry">
            <mxPoint x="952" y="824.3400000000001" as="sourcePoint" />
            <mxPoint x="952" y="534.3400000000001" as="targetPoint" />
          </mxGeometry>
        </mxCell>
        <mxCell id="ILecgsPwq-bgqkM6CZhe-572" value="" style="endArrow=none;html=1;rounded=0;" parent="1" edge="1">
          <mxGeometry relative="1" as="geometry">
            <mxPoint x="952" y="824.3400000000001" as="sourcePoint" />
            <mxPoint x="982" y="824" as="targetPoint" />
          </mxGeometry>
        </mxCell>
        <mxCell id="ILecgsPwq-bgqkM6CZhe-573" value="" style="endArrow=none;html=1;rounded=0;entryX=0;entryY=0.5;entryDx=0;entryDy=0;" parent="1" target="ILecgsPwq-bgqkM6CZhe-585" edge="1">
          <mxGeometry relative="1" as="geometry">
            <mxPoint x="952" y="654.3400000000001" as="sourcePoint" />
            <mxPoint x="977" y="654.34" as="targetPoint" />
          </mxGeometry>
        </mxCell>
        <mxCell id="ILecgsPwq-bgqkM6CZhe-574" value="" style="endArrow=none;html=1;rounded=0;entryX=0;entryY=0.5;entryDx=0;entryDy=0;" parent="1" target="ILecgsPwq-bgqkM6CZhe-583" edge="1">
          <mxGeometry relative="1" as="geometry">
            <mxPoint x="953" y="614.3400000000001" as="sourcePoint" />
            <mxPoint x="978" y="614.34" as="targetPoint" />
          </mxGeometry>
        </mxCell>
        <mxCell id="ILecgsPwq-bgqkM6CZhe-575" value="" style="endArrow=none;html=1;rounded=0;entryX=0;entryY=0.5;entryDx=0;entryDy=0;" parent="1" target="ILecgsPwq-bgqkM6CZhe-581" edge="1">
          <mxGeometry relative="1" as="geometry">
            <mxPoint x="952" y="779.3400000000001" as="sourcePoint" />
            <mxPoint x="977" y="779.34" as="targetPoint" />
          </mxGeometry>
        </mxCell>
        <mxCell id="ILecgsPwq-bgqkM6CZhe-576" value="" style="endArrow=none;html=1;rounded=0;entryX=0;entryY=0.5;entryDx=0;entryDy=0;" parent="1" target="ILecgsPwq-bgqkM6CZhe-590" edge="1">
          <mxGeometry relative="1" as="geometry">
            <mxPoint x="952" y="749" as="sourcePoint" />
            <mxPoint x="982" y="754" as="targetPoint" />
          </mxGeometry>
        </mxCell>
        <mxCell id="ILecgsPwq-bgqkM6CZhe-577" value="" style="endArrow=none;html=1;rounded=0;entryX=0;entryY=0.5;entryDx=0;entryDy=0;" parent="1" target="ILecgsPwq-bgqkM6CZhe-579" edge="1">
          <mxGeometry relative="1" as="geometry">
            <mxPoint x="953" y="564.3400000000001" as="sourcePoint" />
            <mxPoint x="980" y="564" as="targetPoint" />
          </mxGeometry>
        </mxCell>
        <mxCell id="ILecgsPwq-bgqkM6CZhe-578" value="Data creazione" style="text;html=1;strokeColor=none;fillColor=none;align=center;verticalAlign=middle;whiteSpace=wrap;rounded=0;" parent="1" vertex="1">
          <mxGeometry x="998" y="549.34" width="60" height="30" as="geometry" />
        </mxCell>
        <mxCell id="ILecgsPwq-bgqkM6CZhe-579" value="" style="ellipse;whiteSpace=wrap;html=1;aspect=fixed;fillColor=#FFFFFF;" parent="1" vertex="1">
          <mxGeometry x="982" y="554.34" width="20" height="20" as="geometry" />
        </mxCell>
        <mxCell id="ILecgsPwq-bgqkM6CZhe-580" value="&lt;div&gt;Nome&lt;/div&gt;" style="text;html=1;strokeColor=none;fillColor=none;align=center;verticalAlign=middle;whiteSpace=wrap;rounded=0;" parent="1" vertex="1">
          <mxGeometry x="990" y="765" width="60" height="30" as="geometry" />
        </mxCell>
        <mxCell id="ILecgsPwq-bgqkM6CZhe-581" value="" style="ellipse;whiteSpace=wrap;html=1;aspect=fixed;fillColor=#FFFFFF;" parent="1" vertex="1">
          <mxGeometry x="980" y="770" width="20" height="20" as="geometry" />
        </mxCell>
        <mxCell id="ILecgsPwq-bgqkM6CZhe-582" value="&lt;div&gt;Genere&lt;/div&gt;" style="text;html=1;strokeColor=none;fillColor=none;align=center;verticalAlign=middle;whiteSpace=wrap;rounded=0;" parent="1" vertex="1">
          <mxGeometry x="997" y="599.34" width="60" height="30" as="geometry" />
        </mxCell>
        <mxCell id="ILecgsPwq-bgqkM6CZhe-583" value="" style="ellipse;whiteSpace=wrap;html=1;aspect=fixed;fillColor=#FFFFFF;" parent="1" vertex="1">
          <mxGeometry x="980" y="604.34" width="20" height="20" as="geometry" />
        </mxCell>
        <mxCell id="ILecgsPwq-bgqkM6CZhe-584" value="Quotazione" style="text;html=1;strokeColor=none;fillColor=none;align=center;verticalAlign=middle;whiteSpace=wrap;rounded=0;" parent="1" vertex="1">
          <mxGeometry x="1005" y="639.34" width="60" height="30" as="geometry" />
        </mxCell>
        <mxCell id="ILecgsPwq-bgqkM6CZhe-585" value="" style="ellipse;whiteSpace=wrap;html=1;aspect=fixed;fillColor=#FFFFFF;" parent="1" vertex="1">
          <mxGeometry x="981" y="644.34" width="20" height="20" as="geometry" />
        </mxCell>
        <mxCell id="ILecgsPwq-bgqkM6CZhe-586" value="&lt;div&gt;Altezza&lt;/div&gt;" style="text;html=1;strokeColor=none;fillColor=none;align=center;verticalAlign=middle;whiteSpace=wrap;rounded=0;" parent="1" vertex="1">
          <mxGeometry x="995" y="675" width="60" height="30" as="geometry" />
        </mxCell>
        <mxCell id="ILecgsPwq-bgqkM6CZhe-587" value="" style="ellipse;whiteSpace=wrap;html=1;aspect=fixed;fillColor=#FFFFFF;" parent="1" vertex="1">
          <mxGeometry x="980" y="680" width="20" height="20" as="geometry" />
        </mxCell>
        <mxCell id="ILecgsPwq-bgqkM6CZhe-588" value="&lt;div&gt;Profondità&lt;/div&gt;" style="text;html=1;strokeColor=none;fillColor=none;align=center;verticalAlign=middle;whiteSpace=wrap;rounded=0;" parent="1" vertex="1">
          <mxGeometry x="1000" y="704.34" width="60" height="30" as="geometry" />
        </mxCell>
        <mxCell id="ILecgsPwq-bgqkM6CZhe-589" value="&lt;div&gt;Larghezza&lt;/div&gt;" style="text;html=1;strokeColor=none;fillColor=none;align=center;verticalAlign=middle;whiteSpace=wrap;rounded=0;" parent="1" vertex="1">
          <mxGeometry x="1002" y="734" width="60" height="30" as="geometry" />
        </mxCell>
        <mxCell id="ILecgsPwq-bgqkM6CZhe-590" value="" style="ellipse;whiteSpace=wrap;html=1;aspect=fixed;fillColor=#FFFFFF;" parent="1" vertex="1">
          <mxGeometry x="980" y="739" width="20" height="20" as="geometry" />
        </mxCell>
        <mxCell id="ILecgsPwq-bgqkM6CZhe-591" value="Numero" style="text;html=1;strokeColor=none;fillColor=none;align=center;verticalAlign=middle;whiteSpace=wrap;rounded=0;" parent="1" vertex="1">
          <mxGeometry x="997" y="809.34" width="60" height="30" as="geometry" />
        </mxCell>
        <mxCell id="ILecgsPwq-bgqkM6CZhe-592" value="" style="ellipse;whiteSpace=wrap;html=1;align=center;fillColor=#FFFFFF;" parent="1" vertex="1">
          <mxGeometry x="983" y="814.34" width="20" height="20" as="geometry" />
        </mxCell>
        <mxCell id="ILecgsPwq-bgqkM6CZhe-593" value="" style="endArrow=none;html=1;rounded=0;fontFamily=Helvetica;fillColor=#000000;entryX=0;entryY=0.5;entryDx=0;entryDy=0;" parent="1" target="ILecgsPwq-bgqkM6CZhe-587" edge="1">
          <mxGeometry width="50" height="50" relative="1" as="geometry">
            <mxPoint x="952" y="690" as="sourcePoint" />
            <mxPoint x="1071" y="699.34" as="targetPoint" />
          </mxGeometry>
        </mxCell>
        <mxCell id="ILecgsPwq-bgqkM6CZhe-594" value="" style="endArrow=none;html=1;rounded=0;fontFamily=Helvetica;fillColor=#000000;exitX=0.5;exitY=0;exitDx=0;exitDy=0;" parent="1" edge="1">
          <mxGeometry width="50" height="50" relative="1" as="geometry">
            <mxPoint x="962" y="854.3400000000001" as="sourcePoint" />
            <mxPoint x="962" y="759.3400000000001" as="targetPoint" />
          </mxGeometry>
        </mxCell>
        <mxCell id="ILecgsPwq-bgqkM6CZhe-595" value="" style="ellipse;whiteSpace=wrap;html=1;align=center;fillColor=#000000;" parent="1" vertex="1">
          <mxGeometry x="953" y="854.9999999999999" width="20" height="20" as="geometry" />
        </mxCell>
        <mxCell id="ILecgsPwq-bgqkM6CZhe-596" value="" style="endArrow=none;html=1;rounded=0;entryX=0;entryY=0.5;entryDx=0;entryDy=0;" parent="1" target="ILecgsPwq-bgqkM6CZhe-476" edge="1">
          <mxGeometry relative="1" as="geometry">
            <mxPoint x="948.5" y="-120.65999999999954" as="sourcePoint" />
            <mxPoint x="988.0000000000118" y="-60.65999999999977" as="targetPoint" />
          </mxGeometry>
        </mxCell>
        <mxCell id="ILecgsPwq-bgqkM6CZhe-597" value="1;N" style="endArrow=none;html=1;rounded=0;entryX=0;entryY=0.5;entryDx=0;entryDy=0;exitX=0.5;exitY=1;exitDx=0;exitDy=0;" parent="1" edge="1" source="nI-XyVOAhAh8i_kXX127-2">
          <mxGeometry relative="1" as="geometry">
            <mxPoint x="611" y="750" as="sourcePoint" />
            <mxPoint x="901" y="967" as="targetPoint" />
            <Array as="points">
              <mxPoint x="651" y="967" />
            </Array>
          </mxGeometry>
        </mxCell>
        <mxCell id="ILecgsPwq-bgqkM6CZhe-598" value="1,1" style="endArrow=none;html=1;rounded=0;entryX=0.5;entryY=1;entryDx=0;entryDy=0;exitX=1;exitY=0.5;exitDx=0;exitDy=0;" parent="1" source="ILecgsPwq-bgqkM6CZhe-422" target="ILecgsPwq-bgqkM6CZhe-433" edge="1">
          <mxGeometry relative="1" as="geometry">
            <mxPoint x="1146" y="870.2800000000002" as="sourcePoint" />
            <mxPoint x="1875.9999999999995" y="779.3400000000001" as="targetPoint" />
            <Array as="points">
              <mxPoint x="1780" y="967" />
            </Array>
          </mxGeometry>
        </mxCell>
        <mxCell id="ILecgsPwq-bgqkM6CZhe-599" value="1,1" style="endArrow=none;html=1;rounded=0;entryX=0.5;entryY=0;entryDx=0;entryDy=0;exitX=1;exitY=0.5;exitDx=0;exitDy=0;" parent="1" edge="1">
          <mxGeometry relative="1" as="geometry">
            <mxPoint x="981" y="315.34000000000015" as="sourcePoint" />
            <mxPoint x="1780" y="399.34000000000015" as="targetPoint" />
            <Array as="points">
              <mxPoint x="1780" y="315" />
            </Array>
          </mxGeometry>
        </mxCell>
        <mxCell id="ILecgsPwq-bgqkM6CZhe-600" value="" style="ellipse;whiteSpace=wrap;html=1;aspect=fixed;fillColor=#FFFFFF;" parent="1" vertex="1">
          <mxGeometry x="270" y="900" width="20" height="20" as="geometry" />
        </mxCell>
        <mxCell id="ILecgsPwq-bgqkM6CZhe-601" value="" style="endArrow=none;html=1;rounded=0;entryX=0;entryY=0.5;entryDx=0;entryDy=0;" parent="1" target="ILecgsPwq-bgqkM6CZhe-600" edge="1">
          <mxGeometry relative="1" as="geometry">
            <mxPoint x="230" y="910" as="sourcePoint" />
            <mxPoint x="427" y="910" as="targetPoint" />
          </mxGeometry>
        </mxCell>
        <mxCell id="ILecgsPwq-bgqkM6CZhe-602" value="" style="ellipse;whiteSpace=wrap;html=1;aspect=fixed;fillColor=#FFFFFF;" parent="1" vertex="1">
          <mxGeometry x="270" y="930" width="20" height="20" as="geometry" />
        </mxCell>
        <mxCell id="ILecgsPwq-bgqkM6CZhe-603" value="" style="endArrow=none;html=1;rounded=0;" parent="1" target="ILecgsPwq-bgqkM6CZhe-602" edge="1">
          <mxGeometry relative="1" as="geometry">
            <mxPoint x="230" y="940" as="sourcePoint" />
            <mxPoint x="410" y="935" as="targetPoint" />
          </mxGeometry>
        </mxCell>
        <mxCell id="ILecgsPwq-bgqkM6CZhe-604" value="" style="ellipse;whiteSpace=wrap;html=1;aspect=fixed;fillColor=#FFFFFF;" parent="1" vertex="1">
          <mxGeometry x="980" y="709.34" width="20" height="20" as="geometry" />
        </mxCell>
        <mxCell id="ILecgsPwq-bgqkM6CZhe-605" value="" style="endArrow=none;html=1;rounded=0;entryX=0;entryY=0.5;entryDx=0;entryDy=0;startArrow=none;" parent="1" edge="1">
          <mxGeometry relative="1" as="geometry">
            <mxPoint x="952" y="719" as="sourcePoint" />
            <mxPoint x="980" y="719.3400000000001" as="targetPoint" />
          </mxGeometry>
        </mxCell>
        <mxCell id="ILecgsPwq-bgqkM6CZhe-606" value="1;N" style="endArrow=none;html=1;rounded=0;entryX=0.5;entryY=0;entryDx=0;entryDy=0;exitX=0.174;exitY=1.002;exitDx=0;exitDy=0;exitPerimeter=0;" parent="1" source="ILecgsPwq-bgqkM6CZhe-421" target="ILecgsPwq-bgqkM6CZhe-608" edge="1">
          <mxGeometry relative="1" as="geometry">
            <mxPoint x="952" y="520" as="sourcePoint" />
            <mxPoint x="1082" y="520" as="targetPoint" />
          </mxGeometry>
        </mxCell>
        <mxCell id="ILecgsPwq-bgqkM6CZhe-607" value="Materiale" style="whiteSpace=wrap;html=1;align=center;" parent="1" vertex="1">
          <mxGeometry x="782" y="685" width="100" height="40" as="geometry" />
        </mxCell>
        <mxCell id="ILecgsPwq-bgqkM6CZhe-608" value="Comporre" style="shape=rhombus;perimeter=rhombusPerimeter;whiteSpace=wrap;html=1;align=center;" parent="1" vertex="1">
          <mxGeometry x="772" y="534.34" width="120" height="60" as="geometry" />
        </mxCell>
        <mxCell id="ILecgsPwq-bgqkM6CZhe-609" value="0;N" style="endArrow=none;html=1;rounded=0;entryX=0.5;entryY=1;entryDx=0;entryDy=0;exitX=0.5;exitY=0;exitDx=0;exitDy=0;" parent="1" source="ILecgsPwq-bgqkM6CZhe-607" target="ILecgsPwq-bgqkM6CZhe-608" edge="1">
          <mxGeometry relative="1" as="geometry">
            <mxPoint x="962" y="530" as="sourcePoint" />
            <mxPoint x="1048" y="529.3400000000001" as="targetPoint" />
          </mxGeometry>
        </mxCell>
        <mxCell id="ILecgsPwq-bgqkM6CZhe-610" value="" style="ellipse;whiteSpace=wrap;html=1;aspect=fixed;fillColor=#FFFFFF;" parent="1" vertex="1">
          <mxGeometry x="974" y="69.34" width="20" height="20" as="geometry" />
        </mxCell>
        <mxCell id="ILecgsPwq-bgqkM6CZhe-611" value="" style="endArrow=none;html=1;rounded=0;entryX=0;entryY=0.5;entryDx=0;entryDy=0;" parent="1" edge="1">
          <mxGeometry relative="1" as="geometry">
            <mxPoint x="949" y="79.34000000000046" as="sourcePoint" />
            <mxPoint x="974" y="79.34000000000046" as="targetPoint" />
          </mxGeometry>
        </mxCell>
        <mxCell id="nI-XyVOAhAh8i_kXX127-1" value="&lt;div&gt;Contenere&lt;/div&gt;&lt;div&gt;Scultura&lt;br&gt;&lt;/div&gt;" style="shape=rhombus;perimeter=rhombusPerimeter;whiteSpace=wrap;html=1;align=center;" vertex="1" parent="1">
          <mxGeometry x="591" y="394.34000000000003" width="120" height="60" as="geometry" />
        </mxCell>
        <mxCell id="nI-XyVOAhAh8i_kXX127-2" value="&lt;div&gt;Contenere&lt;/div&gt;&lt;div&gt;Altro&lt;br&gt;&lt;/div&gt;" style="shape=rhombus;perimeter=rhombusPerimeter;whiteSpace=wrap;html=1;align=center;" vertex="1" parent="1">
          <mxGeometry x="591" y="519.34" width="120" height="60" as="geometry" />
        </mxCell>
        <mxCell id="nI-XyVOAhAh8i_kXX127-3" value="" style="endArrow=none;html=1;rounded=0;fillColor=#000000;" edge="1" parent="1">
          <mxGeometry width="50" height="50" relative="1" as="geometry">
            <mxPoint x="550" y="550" as="sourcePoint" />
            <mxPoint x="550" y="310" as="targetPoint" />
          </mxGeometry>
        </mxCell>
        <mxCell id="nI-XyVOAhAh8i_kXX127-4" value="" style="endArrow=none;html=1;rounded=0;" edge="1" parent="1">
          <mxGeometry relative="1" as="geometry">
            <mxPoint x="550" y="549" as="sourcePoint" />
            <mxPoint x="591" y="549" as="targetPoint" />
          </mxGeometry>
        </mxCell>
        <mxCell id="nI-XyVOAhAh8i_kXX127-5" value="" style="endArrow=none;html=1;rounded=0;" edge="1" parent="1">
          <mxGeometry relative="1" as="geometry">
            <mxPoint x="550" y="424.1" as="sourcePoint" />
            <mxPoint x="591" y="424.1" as="targetPoint" />
          </mxGeometry>
        </mxCell>
        <mxCell id="nI-XyVOAhAh8i_kXX127-6" value="" style="endArrow=none;html=1;rounded=0;" edge="1" parent="1">
          <mxGeometry relative="1" as="geometry">
            <mxPoint x="550" y="308.8599999999999" as="sourcePoint" />
            <mxPoint x="591" y="308.8599999999999" as="targetPoint" />
          </mxGeometry>
        </mxCell>
        <mxCell id="nI-XyVOAhAh8i_kXX127-7" value="" style="ellipse;whiteSpace=wrap;html=1;align=center;fillColor=#000000;" vertex="1" parent="1">
          <mxGeometry x="820" y="735" width="20" height="20" as="geometry" />
        </mxCell>
        <mxCell id="nI-XyVOAhAh8i_kXX127-8" value="ID" style="text;html=1;strokeColor=none;fillColor=none;align=center;verticalAlign=middle;whiteSpace=wrap;rounded=0;" vertex="1" parent="1">
          <mxGeometry x="822" y="730" width="60" height="30" as="geometry" />
        </mxCell>
        <mxCell id="nI-XyVOAhAh8i_kXX127-9" value="" style="ellipse;whiteSpace=wrap;html=1;align=center;" vertex="1" parent="1">
          <mxGeometry x="820" y="770" width="20" height="20" as="geometry" />
        </mxCell>
        <mxCell id="nI-XyVOAhAh8i_kXX127-10" value="Nome" style="text;html=1;strokeColor=none;fillColor=none;align=center;verticalAlign=middle;whiteSpace=wrap;rounded=0;" vertex="1" parent="1">
          <mxGeometry x="832" y="765" width="60" height="30" as="geometry" />
        </mxCell>
        <mxCell id="nI-XyVOAhAh8i_kXX127-13" value="" style="endArrow=none;html=1;rounded=0;fillColor=#000000;entryX=0.69;entryY=1.008;entryDx=0;entryDy=0;entryPerimeter=0;" edge="1" parent="1">
          <mxGeometry width="50" height="50" relative="1" as="geometry">
            <mxPoint x="790" y="780" as="sourcePoint" />
            <mxPoint x="790" y="724.6599999999999" as="targetPoint" />
          </mxGeometry>
        </mxCell>
        <mxCell id="nI-XyVOAhAh8i_kXX127-14" value="" style="endArrow=none;html=1;rounded=0;entryX=0;entryY=0.5;entryDx=0;entryDy=0;" edge="1" parent="1">
          <mxGeometry relative="1" as="geometry">
            <mxPoint x="790" y="744.3400000000004" as="sourcePoint" />
            <mxPoint x="820.0000000000882" y="744.3400000000004" as="targetPoint" />
          </mxGeometry>
        </mxCell>
        <mxCell id="nI-XyVOAhAh8i_kXX127-15" value="" style="endArrow=none;html=1;rounded=0;entryX=0;entryY=0.5;entryDx=0;entryDy=0;" edge="1" parent="1">
          <mxGeometry relative="1" as="geometry">
            <mxPoint x="790" y="779.6800000000002" as="sourcePoint" />
            <mxPoint x="820.0000000000882" y="779.6800000000002" as="targetPoint" />
          </mxGeometry>
        </mxCell>
      </root>
    </mxGraphModel>
  </diagram>
</mxfile>
